<svg width="250" height="100" viewBox="0 0 250 100" fill="none" xmlns="http://www.w3.org/2000/svg">
<path d="M83.9999 72.8421V27.1567C83.9973 26.4005 83.805 25.6581 83.442 25.0035C83.0791 24.3489 82.5581 23.8048 81.931 23.4253L44.0378 0.582847C43.407 0.201065 42.6905 0 41.9612 0C41.2318 0 40.5153 0.201065 39.8844 0.582847L2.06893 23.4253C1.44179 23.8048 0.920809 24.3489 0.557844 25.0035C0.194878 25.6581 0.00255928 26.4005 0 27.1567V72.8421C0.0013954 73.6007 0.193103 74.3458 0.556049 75.0032C0.918996 75.6607 1.44056 76.2076 2.06893 76.5898L39.8844 99.4322C40.5217 99.8031 41.2391 99.9986 41.9689 100C42.6937 99.998 43.4059 99.8025 44.0378 99.4322L81.8534 76.5898C82.4962 76.2179 83.0333 75.6755 83.4103 75.0173C83.7873 74.3592 83.9906 73.6087 83.9999 72.8421ZM76.2223 70.7331L42.0002 91.4502L7.77805 70.7165V29.2816L42.0002 8.56437L76.2223 29.2816V70.7331Z" fill="#606774"/>
<path d="M24.2656 70.7323H31.9189V37.2475H52.0009V70.7323H59.6386V29.2656H24.2656V70.7323Z" fill="#606774"/>
</svg>
