<svg width="211" height="120" viewBox="0 0 211 120" fill="none" xmlns="http://www.w3.org/2000/svg">
<rect width="211" height="120" fill="white"/>
<g clip-path="url(#clip0_2784_19311)">
<mask id="mask0_2784_19311" style="mask-type:alpha" maskUnits="userSpaceOnUse" x="40" y="48" width="132" height="24">
<path d="M172 48.9238H40V71.0777H172V48.9238Z" fill="#C4C4C4"/>
</mask>
<g mask="url(#mask0_2784_19311)">
<path fill-rule="evenodd" clip-rule="evenodd" d="M45.7423 61.541H43.4775V68.3068H40V51.6914H45.7654C48.6021 51.6914 50.6154 52.6348 50.6154 56.6851C50.6154 60.045 49.1284 61.541 45.7423 61.541ZM44.4154 54.2458H43.4775V58.9864H44.8731C46.3829 58.9864 47.1151 58.2271 47.1151 56.6161C47.1151 54.4529 46.0169 54.2458 44.4154 54.2458Z" fill="#111111"/>
<path fill-rule="evenodd" clip-rule="evenodd" d="M161.44 51.6914L166 68.3068H162.3L161.369 64.6247H156.576L155.622 68.3068H152.154L156.808 51.6914H161.44ZM160.648 62.1161L158.903 54.8902L157.251 62.1161H160.648Z" fill="#111111"/>
<path fill-rule="evenodd" clip-rule="evenodd" d="M143.688 58.6872L147.829 51.6914H151.691L146.992 59.1475L151.691 68.3068H147.736L143.688 59.9069V68.3068H140.152V51.6914H143.688V58.6872Z" fill="#111111"/>
<path fill-rule="evenodd" clip-rule="evenodd" d="M134.063 57.7438H133.994L130.151 68.3068H126.307V51.6914H129.627V62.2542H129.696L133.54 51.6914H137.384V68.3068H134.063V57.7438Z" fill="#111111"/>
<path fill-rule="evenodd" clip-rule="evenodd" d="M120.886 68.3068L119.986 64.6247L119.289 62.1161L117.602 54.8902L115.352 64.6247L114.43 68.3068H111.078L115.577 51.6914H120.054L124.463 68.3068H120.886Z" fill="#111111"/>
<path fill-rule="evenodd" clip-rule="evenodd" d="M105.641 58.3419C108.496 58.3419 111.077 59.0321 111.077 63.4045C111.077 68.4671 107.446 68.3062 105.984 68.3062H100V51.6914H110.187V54.2457H103.449V58.3419H105.641ZM103.449 65.7057H105.253C105.984 65.7057 107.628 65.7287 107.628 63.3585C107.628 61.8398 107.08 60.9193 105.344 60.9193H103.449V65.7057Z" fill="#111111"/>
<path fill-rule="evenodd" clip-rule="evenodd" d="M92.71 59.5617L95.6468 51.6914H99.0774L93.9908 63.5269L94.1052 68.3068H90.8412L90.9238 63.7041L86.1543 51.6914H89.9135L92.71 59.5617Z" fill="#111111"/>
<path fill-rule="evenodd" clip-rule="evenodd" d="M81.8561 54.2458H77.9899V68.3068H74.6152V51.6914H85.2306V68.3068H81.8561V54.2458Z" fill="#111111"/>
<path fill-rule="evenodd" clip-rule="evenodd" d="M68.1162 68.5379C62.8427 68.5379 62.6152 64.6202 62.6152 60.057C62.6152 55.3557 62.7745 51.4609 68.2752 51.4609C71.4575 51.4609 73.0487 53.0971 73.0487 56.3927V56.9688H69.6847V56.6001C69.6847 54.8718 69.1391 53.9959 68.048 53.9959C66.1385 53.9959 66.0477 56.531 66.0477 60.3105C66.0477 63.6292 66.1385 66.0259 68.0707 66.0259C69.7529 66.0259 69.8437 63.9979 69.8437 62.7534H73.2306V63.2374C73.2306 66.7865 71.5486 68.5379 68.1162 68.5379Z" fill="#111111"/>
<path fill-rule="evenodd" clip-rule="evenodd" d="M52.4629 51.6914H61.5101V54.2458H55.9302V58.3422H61.0737V60.8966H55.9302V65.7062H61.6937V68.3068H52.4629V51.6914Z" fill="#111111"/>
<path d="M168.769 56.7689C170.299 56.7689 171.538 55.5291 171.538 53.9997C171.538 52.4703 170.299 51.2305 168.769 51.2305C167.24 51.2305 166 52.4703 166 53.9997C166 55.5291 167.24 56.7689 168.769 56.7689Z" fill="#46C3D2"/>
</g>
</g>
<defs>
<clipPath id="clip0_2784_19311">
<rect width="132" height="22.1538" fill="white" transform="translate(40 48.9219)"/>
</clipPath>
</defs>
</svg>
