<svg width="55" height="70" viewBox="0 0 55 70" fill="none" xmlns="http://www.w3.org/2000/svg">
<path d="M27.1573 8.42577C35.8217 8.42577 41.5609 12.7057 43.8007 20.8713L52.1783 16.1422C48.5754 5.89567 39.2254 0 27.9384 0C14.2123 0 4.96595 8.16566 4.96595 18.1836C4.96595 28.9739 12.8493 35.776 28.6159 38.5032C41.3696 40.5446 45.7536 44.0205 45.7536 50.1684C45.7536 57.073 39.2254 61.542 29.3971 61.542C18.3971 61.542 11 55.2365 8.27392 44.0442L0 49.1989C2.33551 56.5843 6.23333 61.9282 11.5819 65.1362C16.9163 68.3548 23.0526 70.0389 29.3015 69.9993C44.287 69.9993 55 61.542 55 49.8768C55 39.2756 47.8261 33.5454 31.7326 30.4321C20.4456 28.1936 13.9174 24.694 13.9174 17.9865C13.9174 12.1539 19.4971 8.4573 27.1573 8.4573" fill="black"/>
</svg>
