<svg width="75" height="81" viewBox="0 0 75 81" fill="none" xmlns="http://www.w3.org/2000/svg">
<path d="M45.7316 60.6461C42.6851 61.9209 39.4093 62.5587 36.1064 62.5203C30.7244 62.5203 27.4919 58.868 27.4919 53.4296C27.4919 48.688 30.9169 45.3321 35.7134 45.3321C42.082 45.3321 45.3386 49.6812 45.6113 59.1643C45.5802 59.6603 45.6126 60.1583 45.7075 60.6461M20.7383 52.5406C20.7056 54.9162 21.2769 57.2613 22.3986 59.3566C14.2734 55.0155 9.37258 46.4214 9.37258 35.6487C9.37258 19.4457 20.5378 8.57689 35.3284 8.57689C50.119 8.57689 61.2922 19.4457 61.2922 35.5526C61.2922 43.9465 58.2523 50.9627 53.159 55.7043V54.9033C52.2767 43.7462 46.5016 37.9154 36.4112 37.9154C27.3957 37.9154 20.7383 43.8423 20.7383 52.5326M47.0871 69.2322C49.726 77.0333 56.0946 80.99 64.0273 80.99C67.9276 81.1182 71.7685 80.0108 75 77.8263L72.1606 70.2173C70.0937 71.8067 67.5502 72.6533 64.9417 72.6202C59.7522 72.6202 56.5197 70.3535 54.6589 65.6039C64.7492 59.1964 70.8211 48.2235 70.8211 35.5766C71.1179 16.2099 55.1482 -0.385639 35.3605 0.00682214C15.4846 -0.385639 -0.292656 16.2099 0.004119 35.5766C-0.292656 55.0395 15.4846 71.5389 35.3605 71.1384C39.355 71.1427 43.3245 70.51 47.1192 69.2642" fill="black"/>
</svg>
