<svg width="58" height="71" viewBox="0 0 58 71" fill="none" xmlns="http://www.w3.org/2000/svg">
<path d="M9.45754 62.1764V38.6495H34.4446C42.5715 38.6495 48.1214 43.7151 48.1214 50.6144C48.1214 57.5138 42.3694 62.1764 34.4446 62.1764H9.45754ZM9.45754 30.3275V8.83183H33.0382C40.3398 8.83183 46.1002 12.7872 46.1002 19.3823C46.1002 26.2817 41.1651 30.3358 33.0382 30.3358L9.45754 30.3275ZM0 71H34.7562C47.9193 71 58 62.7767 58 51.8315C58 42.9092 52.947 37.1282 44.6264 34.3899C51.2458 31.4541 55.4567 25.4922 55.4567 18.4695C55.4567 8.12462 46.3023 0 32.6255 0H0.025264L0 71Z" fill="black"/>
</svg>
