<svg width="20" height="20" viewBox="0 0 20 20" fill="none" xmlns="http://www.w3.org/2000/svg">
<path fill-rule="evenodd" clip-rule="evenodd" d="M9.42375 18.5513L9.4275 18.555L9.43 18.5575C9.59403 18.6818 9.79419 18.7491 10 18.7491C10.2058 18.7491 10.406 18.6818 10.57 18.5575L10.5725 18.555L10.5763 18.5513L10.5912 18.54C10.6717 18.4779 10.7509 18.4141 10.8288 18.3488C11.7607 17.5631 12.617 16.6918 13.3862 15.7463C14.7625 14.0438 16.25 11.5688 16.25 8.75C16.25 7.0924 15.5915 5.50269 14.4194 4.33058C13.2473 3.15848 11.6576 2.5 10 2.5C8.3424 2.5 6.75269 3.15848 5.58058 4.33058C4.40848 5.50269 3.75 7.0924 3.75 8.75C3.75 11.5688 5.2375 14.0438 6.615 15.7463C7.38428 16.6918 8.24053 17.5631 9.1725 18.3488L9.40875 18.54L9.42375 18.5513ZM10 10.625C10.2462 10.625 10.49 10.5765 10.7175 10.4823C10.945 10.388 11.1517 10.2499 11.3258 10.0758C11.4999 9.90172 11.638 9.69502 11.7323 9.46753C11.8265 9.24005 11.875 8.99623 11.875 8.75C11.875 8.50377 11.8265 8.25995 11.7323 8.03247C11.638 7.80498 11.4999 7.59828 11.3258 7.42417C11.1517 7.25007 10.945 7.11195 10.7175 7.01773C10.49 6.9235 10.2462 6.875 10 6.875C9.50272 6.875 9.02581 7.07254 8.67417 7.42417C8.32254 7.77581 8.125 8.25272 8.125 8.75C8.125 9.24728 8.32254 9.7242 8.67417 10.0758C9.02581 10.4275 9.50272 10.625 10 10.625Z" fill="black"/>
</svg>
