<svg width="48" height="48" viewBox="0 0 48 48" fill="none" xmlns="http://www.w3.org/2000/svg">
<rect width="48" height="48.0043" rx="24" fill="#50463C"/>
<path d="M24.0003 35.8444C21.8903 33.7344 16.9403 28.7943 16.6403 28.4543C15.3708 27.0367 14.5382 25.2822 14.2427 23.4023C13.9473 21.5224 14.2016 19.5972 14.975 17.8585C15.7484 16.1198 17.008 14.6418 18.602 13.6024C20.1961 12.5629 22.0566 12.0065 23.9596 12.0001C25.8626 11.9936 27.7268 12.5374 29.3279 13.566C30.9289 14.5946 32.1985 16.064 32.9837 17.7975C33.7689 19.5309 34.0362 21.4544 33.7535 23.3362C33.4708 25.2181 32.6501 26.9781 31.3903 28.4044C31.3303 28.4644 31.2103 28.6043 29.6503 30.1643L26.8203 27.3444L28.4003 25.7443C29.1513 24.8983 29.6418 23.8532 29.8128 22.735C29.9838 21.6167 29.8281 20.4729 29.3643 19.441C28.9005 18.4092 28.1484 17.5333 27.1986 16.9189C26.2487 16.3044 25.1416 15.9775 24.0103 15.9775C22.879 15.9775 21.7718 16.3044 20.822 16.9189C19.8721 17.5333 19.1201 18.4092 18.6563 19.441C18.1925 20.4729 18.0367 21.6167 18.2078 22.735C18.3788 23.8532 18.8693 24.8983 19.6203 25.7443C19.9203 26.0743 24.2003 30.3543 26.8203 32.9743L24.0003 35.8444Z" fill="white"/>
</svg>
